<?xml version="1.0" encoding="utf-8"?>
<!-- Generator: Adobe Illustrator 25.4.1, SVG Export Plug-In . SVG Version: 6.00 Build 0)  -->
<svg version="1.1" id="Слой_1" xmlns="http://www.w3.org/2000/svg" xmlns:xlink="http://www.w3.org/1999/xlink" x="0px" y="0px"
	 viewBox="0 0 96.5 96" style="enable-background:new 0 0 96.5 96;" xml:space="preserve">
<style type="text/css">
	.st0{opacity:0.25;}
	.st1{fill-rule:evenodd;clip-rule:evenodd;fill:url(#SVGID_1_);stroke:#1E1E1E;stroke-width:0.5;stroke-miterlimit:10;}
	
		.st2{fill:url(#SVGID_00000016779829142250171210000001014646351997611918_);stroke:#1E1E1E;stroke-width:0.5;stroke-miterlimit:10;}
	
		.st3{fill:url(#SVGID_00000005962314987885622360000001598986848370933664_);stroke:#1E1E1E;stroke-width:0.5;stroke-miterlimit:10;}
	
		.st4{fill:url(#SVGID_00000116233015733421758460000015054523589044999306_);stroke:#1E1E1E;stroke-width:0.5;stroke-miterlimit:10;}
	
		.st5{fill:url(#SVGID_00000158740408256847530080000016857012098212496026_);stroke:#1E1E1E;stroke-width:0.5;stroke-miterlimit:10;}
</style>
<g class="st0">
	
		<linearGradient id="SVGID_1_" gradientUnits="userSpaceOnUse" x1="0" y1="-931.999" x2="96" y2="-931.999" gradientTransform="matrix(1 0 0 -1 0.25 -884)">
		<stop  offset="0" style="stop-color:#00A0DB"/>
		<stop  offset="0.2" style="stop-color:#362983"/>
		<stop  offset="0.4" style="stop-color:#E4007D"/>
		<stop  offset="0.6" style="stop-color:#E31F21"/>
		<stop  offset="0.8" style="stop-color:#FFE900"/>
		<stop  offset="1" style="stop-color:#009447"/>
	</linearGradient>
	<path class="st1" d="M69.1,95.6c1.3,0.3,2.7,0.1,3.9-0.4l19.8-9.5c2.1-1,3.4-3.1,3.4-5.4V15.8c0-2.3-1.3-4.4-3.4-5.4L73.1,0.8
		c-1.4-0.7-3-0.8-4.5-0.3c-0.9,0.3-1.7,0.8-2.3,1.5L34.4,37.2L15.8,22l-1.6-1.4c-1-0.9-2.3-1.2-3.6-0.8c-0.2,0-0.4,0.1-0.5,0.2
		l-7.3,3c-1.4,0.6-2.3,1.9-2.5,3.4v43.3c0.1,1.5,1.1,2.8,2.5,3.4l7.3,3c0.2,0.1,0.3,0.1,0.5,0.2c1.3,0.3,2.6,0,3.6-0.8l1.6-1.3
		l18.6-15.3L66.2,94C67,94.8,68,95.3,69.1,95.6z M72.2,27.7L47.5,48l24.8,20.3V27.7z M12.2,34.2L24.7,48L12.2,61.7V34.2z"/>
</g>
<linearGradient id="SVGID_00000174599467088019497610000008439548717922411920_" gradientUnits="userSpaceOnUse" x1="-1.007677e-04" y1="50.225" x2="15.5" y2="50.225" gradientTransform="matrix(1 0 0 -1 0.25 98.25)">
	<stop  offset="0" style="stop-color:#00A0DB"/>
	<stop  offset="1" style="stop-color:#362983"/>
</linearGradient>
<path style="fill:url(#SVGID_00000174599467088019497610000008439548717922411920_);stroke:#1E1E1E;stroke-width:0.5;stroke-miterlimit:10;" d="
	M14.1,75.4c-1.1,1-2.7,1.2-4.1,0.7l-7.3-3c-1.5-0.6-2.5-2.1-2.5-3.7V26.7c0-1.6,1-3.1,2.5-3.7l7.3-3c1.4-0.6,3-0.3,4.1,0.6l1.6,1.4
	c-1-0.7-2.4-0.5-3.1,0.5c-0.3,0.4-0.4,0.8-0.4,1.3v48.5c0,1.2,1,2.2,2.2,2.2c0.5,0,0.9-0.1,1.3-0.4L14.1,75.4z"/>
<linearGradient id="SVGID_00000009582839318106838420000013946647523591538324_" gradientUnits="userSpaceOnUse" x1="0" y1="59.944" x2="96" y2="59.944" gradientTransform="matrix(1 0 0 -1 0.25 98.25)">
	<stop  offset="0" style="stop-color:#00A0DB"/>
	<stop  offset="6.900419e-02" style="stop-color:#1377BC"/>
	<stop  offset="0.138" style="stop-color:#2255A4"/>
	<stop  offset="0.2037" style="stop-color:#2D3D92"/>
	<stop  offset="0.2642" style="stop-color:#342E87"/>
	<stop  offset="0.3145" style="stop-color:#362983"/>
	<stop  offset="0.3338" style="stop-color:#512382"/>
	<stop  offset="0.3743" style="stop-color:#851680"/>
	<stop  offset="0.4124" style="stop-color:#AE0D7F"/>
	<stop  offset="0.4468" style="stop-color:#CC067E"/>
	<stop  offset="0.4764" style="stop-color:#DE027D"/>
	<stop  offset="0.4978" style="stop-color:#E4007D"/>
	<stop  offset="0.7207" style="stop-color:#E31F21"/>
</linearGradient>
<path style="fill:url(#SVGID_00000009582839318106838420000013946647523591538324_);stroke:#1E1E1E;stroke-width:0.5;stroke-miterlimit:10;" d="
	M2.7,73c-1.5-0.6-2.5-2.1-2.5-3.7V69c0,1.3,1.1,2.3,2.3,2.3c0.6,0,1.2-0.3,1.7-0.7L66.2,2c1.8-1.8,4.5-2.3,6.8-1.2l19.8,9.5
	c2.1,1,3.4,3.1,3.4,5.4V16c0-2.1-1.7-3.8-3.8-3.8c-0.9,0-1.7,0.3-2.4,0.9L15.8,74l-1.6,1.4c-1.1,1-2.7,1.2-4.1,0.7L2.7,73z"/>
<linearGradient id="SVGID_00000162343796795740318510000009155798234485910157_" gradientUnits="userSpaceOnUse" x1="0" y1="40.5394" x2="96" y2="40.5394" gradientTransform="matrix(1 0 0 -1 0.25 98.25)">
	<stop  offset="0" style="stop-color:#00A0DB"/>
	<stop  offset="0.2168" style="stop-color:#362983"/>
	<stop  offset="0.3827" style="stop-color:#462582"/>
	<stop  offset="0.5425" style="stop-color:#E4007D"/>
	<stop  offset="0.7123" style="stop-color:#E31F21"/>
</linearGradient>
<path style="fill:url(#SVGID_00000162343796795740318510000009155798234485910157_);stroke:#1E1E1E;stroke-width:0.5;stroke-miterlimit:10;" d="
	M2.7,23c-1.5,0.6-2.5,2.1-2.5,3.7V27c0-1.3,1.1-2.3,2.3-2.3c0.6,0,1.2,0.3,1.7,0.7l62,68.6c1.8,1.8,4.5,2.3,6.8,1.2l19.8-9.5
	c2.1-1,3.4-3.1,3.4-5.4V80c0,2.1-1.7,3.8-3.8,3.8c-0.9,0-1.7-0.3-2.4-0.9L15.8,22l-1.6-1.4c-1.2-1-2.8-1.2-4.1-0.6L2.7,23z"/>
<linearGradient id="SVGID_00000155865581632241837080000002849297708697450936_" gradientUnits="userSpaceOnUse" x1="66" y1="50.2533" x2="96" y2="50.2533" gradientTransform="matrix(1 0 0 -1 0.25 98.25)">
	<stop  offset="1.396648e-02" style="stop-color:#E31F21"/>
	<stop  offset="0.5" style="stop-color:#FFE900"/>
	<stop  offset="0.556" style="stop-color:#FBE801"/>
	<stop  offset="0.6167" style="stop-color:#EEE305"/>
	<stop  offset="0.6797" style="stop-color:#D8DC0B"/>
	<stop  offset="0.7443" style="stop-color:#B9D213"/>
	<stop  offset="0.8101" style="stop-color:#92C51E"/>
	<stop  offset="0.8769" style="stop-color:#62B52C"/>
	<stop  offset="0.9433" style="stop-color:#2BA23B"/>
	<stop  offset="0.9888" style="stop-color:#009447"/>
</linearGradient>
<path style="fill:url(#SVGID_00000155865581632241837080000002849297708697450936_);stroke:#1E1E1E;stroke-width:0.5;stroke-miterlimit:10;" d="
	M73.1,95.2c-2.3,1.1-5,0.6-6.8-1.2c1.4,1.4,3.6,1.4,5,0c0.7-0.7,1-1.5,1-2.5v-87c0-1.9-1.6-3.5-3.5-3.5c0,0,0,0,0,0
	c-0.9,0-1.8,0.3-2.5,1c1.8-1.8,4.5-2.2,6.8-1.1l19.8,9.5c2.1,1,3.4,3.1,3.4,5.4v64.5c0,2.3-1.3,4.4-3.4,5.4L73.1,95.2z"/>
</svg>
