<svg id="Слой_1" data-name="Слой 1" xmlns="http://www.w3.org/2000/svg" xmlns:xlink="http://www.w3.org/1999/xlink" viewBox="0 0 98.1 97.59"><defs><style>.cls-1{opacity:0.25;}.cls-2,.cls-3,.cls-4,.cls-5,.cls-6{stroke:#404040;stroke-miterlimit:10;stroke-width:2px;}.cls-2{fill-rule:evenodd;fill:url(#Безымянный_градиент);}.cls-3{fill:url(#Безымянный_градиент_513);}.cls-4{fill:url(#Безымянный_градиент_558);}.cls-5{fill:url(#Безымянный_градиент_553);}.cls-6{fill:url(#Безымянный_градиент_547);}</style><linearGradient id="Безымянный_градиент" x1="0.05" y1="2011.96" x2="96.05" y2="2011.96" gradientTransform="translate(0.25 -1964)" gradientUnits="userSpaceOnUse"><stop offset="0" stop-color="#00a0db"/><stop offset="0.2" stop-color="#362983"/><stop offset="0.4" stop-color="#e4007d"/><stop offset="0.6" stop-color="#e31f21"/><stop offset="0.8" stop-color="#ffe900"/><stop offset="1" stop-color="#009447"/></linearGradient><linearGradient id="Безымянный_градиент_513" y1="1029.78" x2="15.5" y2="1029.78" gradientTransform="translate(0.25 -981.75)" gradientUnits="userSpaceOnUse"><stop offset="0" stop-color="#247ce6"/><stop offset="1" stop-color="#247ce6"/></linearGradient><linearGradient id="Безымянный_градиент_558" x1="-0.05" y1="1020.04" x2="95.95" y2="1020.04" gradientTransform="translate(0.25 -981.75)" gradientUnits="userSpaceOnUse"><stop offset="0.29" stop-color="#247ce6"/><stop offset="0.39" stop-color="#15a4ea"/><stop offset="0.51" stop-color="#00daf0"/><stop offset="0.69" stop-color="#0bdccc"/><stop offset="1" stop-color="#1ddf93"/></linearGradient><linearGradient id="Безымянный_градиент_553" x1="-0.05" y1="1039.47" x2="95.95" y2="1039.47" gradientTransform="translate(0.25 -981.75)" gradientUnits="userSpaceOnUse"><stop offset="0.24" stop-color="#247ce6"/><stop offset="0.29" stop-color="#2086e7"/><stop offset="0.38" stop-color="#16a0ea"/><stop offset="0.49" stop-color="#06c9ee"/><stop offset="0.53" stop-color="#00daf0"/><stop offset="0.91" stop-color="#18dea4"/><stop offset="1" stop-color="#1ddf93"/></linearGradient><linearGradient id="Безымянный_градиент_547" x1="66" y1="1029.78" x2="96" y2="1029.78" gradientTransform="translate(0.25 -981.75)" gradientUnits="userSpaceOnUse"><stop offset="0" stop-color="#00daf0"/><stop offset="0.07" stop-color="#06dbdc"/><stop offset="0.18" stop-color="#0fddc1"/><stop offset="0.31" stop-color="#15dead"/><stop offset="0.45" stop-color="#1ade9e"/><stop offset="0.61" stop-color="#1cdf96"/><stop offset="0.88" stop-color="#1ddf93"/></linearGradient></defs><g class="cls-1"><path class="cls-2" d="M69.1,95.6a6.51,6.51,0,0,0,3.9-.4l19.8-9.5a6,6,0,0,0,3.4-5.4V15.8a6,6,0,0,0-3.4-5.4L73.1.8A5.86,5.86,0,0,0,68.6.5,5.13,5.13,0,0,0,66.3,2L34.4,37.2,15.8,22l-1.6-1.4a3.65,3.65,0,0,0-3.6-.8.76.76,0,0,0-.5.2L2.8,23A4.24,4.24,0,0,0,.3,26.4V69.7a4.05,4.05,0,0,0,2.5,3.4l7.3,3c.2.1.3.1.5.2a4.19,4.19,0,0,0,3.6-.8l1.6-1.3L34.4,58.9,66.2,94A6.38,6.38,0,0,0,69.1,95.6Zm3.1-67.9L47.5,48,72.3,68.3V27.7Zm-60,6.5L24.7,48,12.2,61.7Z" transform="translate(0.8 0.81)"/></g><path class="cls-3" d="M14.1,75.4a4.06,4.06,0,0,1-4.1.7l-7.3-3A4,4,0,0,1,.2,69.4V26.7A4,4,0,0,1,2.7,23L10,20a4,4,0,0,1,4.1.6L15.7,22a2.23,2.23,0,0,0-3.1.5,2,2,0,0,0-.4,1.3V72.3a2.22,2.22,0,0,0,2.2,2.2,2,2,0,0,0,1.3-.4Z" transform="translate(0.8 0.81)"/><path class="cls-4" d="M2.7,73A4,4,0,0,1,.2,69.3V69a2.33,2.33,0,0,0,2.3,2.3,2.84,2.84,0,0,0,1.7-.7L66.2,2A6,6,0,0,1,73,.8l19.8,9.5a6,6,0,0,1,3.4,5.4V16a3.8,3.8,0,0,0-3.8-3.8,3.58,3.58,0,0,0-2.4.9L15.8,74l-1.6,1.4a4.06,4.06,0,0,1-4.1.7Z" transform="translate(0.8 0.81)"/><path class="cls-5" d="M2.7,23A4,4,0,0,0,.2,26.7V27a2.33,2.33,0,0,1,2.3-2.3,2.84,2.84,0,0,1,1.7.7L66.2,94A6,6,0,0,0,73,95.2l19.8-9.5a6,6,0,0,0,3.4-5.4V80a3.8,3.8,0,0,1-3.8,3.8,3.58,3.58,0,0,1-2.4-.9L15.8,22l-1.6-1.4a3.88,3.88,0,0,0-4.1-.6Z" transform="translate(0.8 0.81)"/><path class="cls-6" d="M73.1,95.2A6,6,0,0,1,66.3,94a3.5,3.5,0,0,0,5,0,3.32,3.32,0,0,0,1-2.5V4.5A3.54,3.54,0,0,0,68.8,1h0a3.47,3.47,0,0,0-2.5,1A5.93,5.93,0,0,1,73.1.9l19.8,9.5a6,6,0,0,1,3.4,5.4V80.3a6,6,0,0,1-3.4,5.4Z" transform="translate(0.8 0.81)"/></svg>